<svg xmlns="http://www.w3.org/2000/svg" viewBox="0 0 512 512">
  <defs>
    <linearGradient id="bg" x1="0%" y1="0%" x2="100%" y2="100%">
      <stop offset="0%" style="stop-color:#6366f1"/>
      <stop offset="100%" style="stop-color:#4f46e5"/>
    </linearGradient>
  </defs>
  <!-- Background -->
  <rect width="512" height="512" rx="96" fill="url(#bg)"/>
  <!-- Book icon -->
  <g fill="white">
    <!-- Left page -->
    <path d="M128 120 C128 100, 145 85, 165 85 L240 85 L240 390 L165 390 C145 390, 128 375, 128 355 Z" opacity="0.9"/>
    <!-- Right page -->
    <path d="M272 85 L347 85 C367 85, 384 100, 384 120 L384 355 C384 375, 367 390, 347 390 L272 390 Z" opacity="0.9"/>
    <!-- Center binding -->
    <rect x="240" y="85" width="32" height="305" rx="4" opacity="0.7"/>
    <!-- Lines on left page -->
    <rect x="152" y="140" width="65" height="8" rx="4" fill="#4f46e5" opacity="0.4"/>
    <rect x="152" y="170" width="55" height="8" rx="4" fill="#4f46e5" opacity="0.4"/>
    <rect x="152" y="200" width="60" height="8" rx="4" fill="#4f46e5" opacity="0.4"/>
    <!-- Lines on right page -->
    <rect x="295" y="140" width="65" height="8" rx="4" fill="#4f46e5" opacity="0.4"/>
    <rect x="295" y="170" width="55" height="8" rx="4" fill="#4f46e5" opacity="0.4"/>
    <rect x="295" y="200" width="60" height="8" rx="4" fill="#4f46e5" opacity="0.4"/>
    <!-- Sparkle/AI indicator -->
    <circle cx="380" cy="130" r="28" fill="#fbbf24"/>
    <path d="M380 110 L383 125 L398 128 L383 131 L380 146 L377 131 L362 128 L377 125 Z" fill="white"/>
  </g>
</svg>
